<svg width="50" height="58" viewBox="0 0 50 58" fill="none" xmlns="http://www.w3.org/2000/svg">
<path d="M45.5137 3.7929C46.4484 2.1739 47.3668 0.827038 47.5685 0.802734C48.3661 0.559285 49.2039 1.46533 49.2942 2.69066C49.3642 3.95119 48.9291 5.43631 45.4012 16.5861C42.3952 26.0193 41.3505 28.5603 40.4365 28.9242C39.4318 29.2827 38.7982 28.9169 38.6212 27.9231C38.5577 27.4641 39.2653 24.7754 40.2208 21.9013L41.9527 16.7069L39.6744 20.0842C30.5459 33.538 25.2813 39.6493 16.584 46.8291C10.3001 52.0234 1.23647 57.7246 0.180599 57.115C-0.0657707 56.9728 0.0764686 56.7264 0.662837 56.361C1.32504 55.9456 1.37734 55.9744 2.97311 54.8792C4.43797 53.8739 11.0687 49.2292 15.0463 45.7535C23.5581 38.3259 32.434 27.2604 38.7739 16.2794L40.6027 13.1118L37.1237 15.5613C32.7291 18.7023 29.146 20.7632 26.0857 21.9997C21.7228 23.7043 25.1249 20.4126 33.5888 14.6936C41.0262 9.69594 43.2988 7.62923 45.5137 3.7929Z" fill="#C87D37"/>
</svg>
