<svg width="127" height="55" viewBox="0 0 127 55" fill="none" xmlns="http://www.w3.org/2000/svg">
<path d="M123.717 0.369278C122.02 0.665499 116.812 2.29592 112.1 3.98264C105.017 6.52831 103.444 6.94658 102.913 6.42786C101.85 5.39043 100.742 5.77279 97.6145 8.21355L94.7022 10.4977L94.5576 8.58632C94.4449 6.76717 94.3192 6.58342 93.3279 6.40912C90.9416 5.91066 88.9446 7.07406 83.8355 12.0356C81.1733 14.5639 78.9697 16.6243 78.9384 16.5938C78.8759 16.5328 78.8352 15.6384 78.8243 14.6512C78.8034 12.7385 77.861 11.3912 76.2793 10.9457C74.883 10.4981 71.9632 12.1036 68.8097 14.9457L65.8702 17.5696L64.6806 16.225C63.7409 15.1245 63.2436 14.8831 62.1313 14.9569C60.7404 15.003 57.2635 16.5528 56.3156 17.5196C56.0404 17.8003 56.0011 17.0294 56.2967 15.792C56.8248 13.1945 56.5245 11.1923 55.3994 10.0938C54.4305 9.14792 51.0937 9.36948 49.0661 10.5641C47.1615 11.6956 40.9055 16.392 39.7129 17.6084L38.8568 18.4816L38.7108 16.4469C38.4955 13.7341 37.3079 12.5746 34.9916 12.8158C34.0342 12.9189 32.7704 13.2721 32.2485 13.6171C31.6961 13.9934 30.9895 14.4022 30.6823 14.5907C28.93 15.5046 16.7847 27.3309 12.724 32.0342C7.8085 37.7342 2.23789 45.7245 0.60837 49.383C0.034844 50.6543 -0.174461 51.3045 0.15986 50.7764C8.1849 38.2237 10.7466 34.9869 19.9252 26.1242C23.8106 22.3484 28.0356 18.5381 29.3239 17.5984C32.2376 15.4377 34.9752 14.1427 35.7831 14.5042C36.684 14.8954 37.0108 16.4963 36.5385 18.5378C36.1552 20.2389 35.9112 20.5502 29.9154 26.4162C16.6401 39.5198 10.0216 50.6378 13.4595 53.9942C15.241 55.7334 16.5041 55.3186 19.7447 51.9509C24.1152 47.306 34.1101 31.1219 36.8773 24.057C37.8402 21.6398 37.9319 21.5463 41.7017 18.5123C50.866 11.1615 54.6554 9.91681 54.0552 14.3972C53.4557 18.9393 53.0004 19.7156 46.7647 26.263C40.6825 32.7162 39.0687 34.9862 37.0552 40.2842C35.9435 43.2275 36.0717 46.4658 37.3742 46.8218C38.708 47.2083 39.2312 46.9866 40.8505 45.2103C42.4092 43.558 49.9688 30.8561 52.903 24.931C54.4761 21.7667 54.6895 21.4867 57.0521 19.8256C59.4758 18.1022 62.4003 16.9287 62.9628 17.4779C63.1191 17.6305 63.1904 18.4936 63.2006 19.4191C63.1862 20.9311 62.7323 21.8308 59.5046 26.3707C53.8124 34.5475 52.8243 37.4894 55.5544 38.3235C56.4845 38.5602 56.7611 38.4029 58.1643 36.6598C59.812 34.6671 62.4439 29.3623 64.2161 24.6223C65.1464 22.0513 65.5426 21.5224 69.059 17.9358C73.4009 13.5072 75.3667 12.3132 76.3389 13.5676C77.0292 14.4857 75.9969 19.0325 74.629 21.1764C73.7769 22.4199 73.7504 22.8212 74.3442 23.401L75.0631 24.1028L82.7699 16.3668C88.7332 10.3469 90.7227 8.50478 91.6475 8.24785L92.8189 7.92652L92.6544 9.84126C92.5735 10.922 92.1562 12.3459 91.669 13.03C91.2436 13.7134 90.9745 14.5494 91.1641 14.9176C91.7035 16.1767 93.2717 15.3882 96.3295 12.2695C99.8764 8.65166 100.798 8.08622 101.333 8.97514C101.931 9.92509 103.444 9.69259 108.461 7.694C110.955 6.71029 114.835 5.24864 117.053 4.48393C121.026 3.11381 127.272 0.299604 126.991 0.0249901C126.897 -0.066548 125.446 0.103571 123.717 0.369278ZM46.2181 32.81C43.2439 37.9026 39.2585 43.8392 38.7945 43.8134C38.2998 43.8188 40.4336 38.211 41.8898 35.665C43.467 32.8709 49.8794 25.5194 49.2488 27.2232C49.0388 27.8118 47.675 30.3258 46.2181 32.81ZM33.0252 28.0483C27.8146 37.8551 19.8997 49.1724 16.647 51.4294L15.2663 52.4009L15.3737 50.9188C15.5077 49.0352 18.2312 43.6369 21.2136 39.2848C23.9832 35.2743 33.7891 24.3992 34.2579 24.8569C34.4454 25.04 33.8739 26.4964 33.0252 28.0483Z" fill="#DFBB87"/>
</svg>
