<svg width="94" height="34" viewBox="0 0 94 34" fill="none" xmlns="http://www.w3.org/2000/svg">
<path d="M78.4589 33.4559C79.4749 32.8557 89.7615 23.2216 92.2379 20.5998C93.0317 19.7469 91.7935 20.8525 89.5393 23.0004C83.5705 28.7178 78.2367 33.4243 77.7287 33.4243C77.5065 33.4243 77.316 33.2348 77.316 33.0452C77.316 32.2871 79.1257 28.8441 83.0308 22.2108C87.3804 14.8193 92.9047 4.83768 93.6666 3.00561C94.1111 1.93164 94.1111 1.80529 93.6666 1.64736C92.9047 1.33148 91.2537 2.62656 84.3007 8.94405C77.9827 14.7245 70.6487 21.0736 67.8231 23.2847C65.8864 24.8325 66.3944 24.0428 71.2519 18.0412C76.046 12.1028 76.4905 11.471 76.2048 10.9972C75.7603 10.2707 74.5856 10.8077 71.6647 13.1452C67.7278 16.3039 64.7117 18.5782 64.4894 18.5782C64.3942 18.5782 64.4259 18.2623 64.5847 17.8833C64.9974 16.7777 64.4577 15.7353 63.5052 15.7353C63.0607 15.7353 61.5368 16.3355 60.0763 17.062C58.6476 17.8201 57.3459 18.4834 57.1872 18.5466C57.0284 18.6098 57.3777 18.0096 57.9492 17.1884C58.9651 15.7669 58.9969 15.7353 58.4254 15.1036C57.6634 14.2507 57.4094 14.2823 55.568 15.609C54.679 16.2091 53.7266 16.8725 53.4091 17.062C52.9011 17.3147 52.8693 17.2831 53.1551 16.7145C53.3456 16.3671 53.5043 16.0196 53.5043 15.9249C53.5043 15.5458 52.4566 14.7877 51.9486 14.7877C51.6311 14.7877 49.5357 15.9565 47.2815 17.3779C40.0428 21.9265 32.4548 26.4751 32.2961 26.3171C32.1373 26.1908 39.8205 15.8933 43.3764 11.471C46.5831 7.52261 46.9323 6.95404 46.7101 6.13276C46.4878 5.18514 45.7258 4.90085 44.8369 5.34308C44.4559 5.56419 42.551 6.82769 40.646 8.15436C36.4869 11.0604 32.0738 13.8717 28.5815 15.7669L26.0733 17.1252L26.8353 15.8933C27.248 15.1983 29.4069 11.9448 31.6293 8.62817C33.8518 5.34308 35.7567 2.2791 35.8837 1.83687C36.0107 1.23671 35.8837 0.857665 35.4075 0.415441C34.8042 -0.121545 34.6772 -0.121545 33.7248 0.320678C33.1533 0.604965 31.6293 1.64735 30.3276 2.68973C26.2003 5.94324 20.9935 9.76531 20.0728 10.2391L19.1838 10.7129L19.66 9.82849C19.914 9.35468 20.7712 8.02801 21.5649 6.92245C23.0889 4.7745 23.4064 3.54259 22.4857 3.19513C22.1999 3.06878 21.5967 3.19513 21.1522 3.47942C20.7077 3.73212 19.4695 4.49022 18.4536 5.12196C16.9931 5.97482 16.1994 6.25911 15.1199 6.25911C14.0087 6.25911 13.215 6.5434 11.7863 7.39626C10.7386 8.02801 8.7384 9.10198 7.34145 9.7969C4.5793 11.1552 -0.214776 14.1875 0.00746029 14.4087C0.356703 14.7561 5.24602 12.9241 9.53213 10.8709C12.2625 9.51261 14.8659 8.47023 15.6597 8.37547C16.4216 8.28071 17.5963 7.83848 18.2948 7.39626C18.9615 6.92245 19.533 6.63816 19.533 6.73292C19.533 6.82768 19.0568 7.64896 18.4536 8.56499C16.8979 10.9025 16.7391 11.7553 17.7551 12.4187C18.5171 12.9241 18.644 12.9241 19.914 12.2923C20.676 11.9448 23.8509 9.73373 26.994 7.36467C30.1054 5.0272 32.7406 3.19513 32.8358 3.2899C32.8993 3.35307 32.0738 4.74292 30.9626 6.35387C24.4223 15.8617 23.0254 17.978 23.0254 18.3887C23.0254 19.2731 24.0096 19.9049 25.0256 19.7154C25.978 19.5258 30.6769 16.7777 37.7886 12.2607C39.884 10.934 41.789 9.73373 42.043 9.60738C42.5192 9.2915 38.5823 14.6614 32.8675 22.0528C30.6451 24.9273 28.6767 27.5806 28.4545 27.9913C28.0417 28.7809 28.264 29.9181 28.8354 29.9813C29.9149 30.076 30.8039 29.6338 35.9789 26.3487C43.2494 21.7685 49.5357 17.9465 49.8214 17.9465C49.9484 17.9465 49.5992 18.515 49.0595 19.21C47.98 20.5682 47.8848 21.8001 48.8372 21.9896C49.123 22.0528 50.2659 21.4842 51.3771 20.6946C54.171 18.7361 54.3615 18.6414 53.7266 19.5574C52.9646 20.5998 53.0598 21.3895 53.9488 21.7685C54.5838 22.0844 55.187 21.8317 58.4571 20.0312C60.5208 18.8941 62.267 18.0096 62.3305 18.0728C62.394 18.1676 62.267 18.515 62.0765 18.8941C61.886 19.2731 61.7908 19.9365 61.886 20.3471C62.0448 20.9789 62.2987 21.1052 63.1877 21.1052C64.0767 21.1052 64.8704 20.6314 67.6326 18.4203C69.474 16.9357 70.9662 15.7669 70.9662 15.8617C70.9662 15.9249 69.8867 17.3147 68.5533 18.9257C65.3784 22.8109 64.3307 24.3587 64.1084 25.4959C63.9497 26.2224 64.0449 26.5066 64.4259 26.6646C65.7276 27.17 65.8546 27.0752 84.4277 9.76532C91.349 3.32149 93.5079 1.52101 93.5079 2.18434C93.5079 2.68974 87.6661 13.3347 82.9355 21.4211C78.2049 29.5075 76.9985 31.8765 76.9985 33.1084C76.9985 34.214 77.1572 34.2456 78.4589 33.4559Z" fill="#C87D37"/>
</svg>
