<svg width="193" height="30" viewBox="0 0 193 30" fill="none" xmlns="http://www.w3.org/2000/svg">
<path d="M35.6014 28.5991C37.5941 27.8574 42.258 26.0444 45.9891 24.5198C54.5536 21.0998 58.8359 19.5341 58.2847 20.0285C58.0303 20.2345 56.08 21.5531 53.96 22.954C49.6778 25.7147 48.321 27.1981 49.0418 28.3106C50.1441 30 52.8153 29.2995 67.4004 23.6133C75.2442 20.5642 81.2648 18.4628 82.2823 18.4628C83.0455 18.4628 82.6215 19.2456 80.332 22.0063C76.9825 26.0856 77.1945 28.3518 80.9256 28.3518C82.6215 28.3518 85.2079 27.4041 96.6555 22.5832C106.746 18.3391 109.29 17.3914 109.672 17.8035C109.799 17.9271 109.587 18.8336 109.205 19.8225C107.934 23.1189 108.612 24.6434 111.41 24.6434C113.573 24.6434 116.625 23.6545 127.31 19.5341C132.355 17.5563 137.146 15.8257 137.909 15.7433C139.181 15.5372 139.309 15.6197 139.987 17.2266C141.047 19.6989 142.785 20.2758 147.958 19.9873C152.198 19.6989 158.727 18.3392 163.009 16.7734C166.74 15.4548 187.134 6.06022 190.569 4.08241C196.292 0.827257 191.798 2.31062 178.273 8.16165C165.299 13.7655 162.967 14.672 157.71 16.0729C151.943 17.5975 144.736 18.0919 143.082 17.0618C142.488 16.691 142.022 16.1141 142.022 15.8257C142.022 14.7132 140.284 13.1062 139.097 13.1062C138.503 13.1062 134.051 14.672 129.302 16.5262C121.204 19.7401 115.48 21.7591 112.64 22.336C111.113 22.6656 110.817 21.9239 111.665 19.9049C112.555 17.8859 112.513 16.691 111.58 15.8257C110.435 14.8368 108.909 15.2488 101.319 18.5864C88.8965 24.0254 81.5192 26.6624 80.544 26.0856C80.2472 25.9208 80.6288 25.1379 81.4344 24.1078C83.5119 21.3883 84.6567 19.5753 84.9959 18.5864C85.2079 17.8035 84.9959 17.5151 83.8087 16.9794C82.028 16.1553 81.604 16.2789 69.7323 20.8114C61.6766 23.9017 52.9849 26.8685 52.7305 26.58C52.6457 26.4976 54.5112 25.0967 56.9279 23.4897C63.4573 19.0396 63.9237 18.5452 62.6518 17.309C61.7614 16.4437 60.4046 16.7734 54.596 19.122C47.3882 22.0887 35.0926 26.7448 34.8806 26.58C34.8382 26.4976 37.0006 24.9319 39.7565 23.1189C45.6923 19.122 47.0067 17.8859 46.3707 16.897C46.1163 16.5261 45.5227 16.1553 45.0987 16.0729C44.6323 16.0317 41.2404 17.1442 37.5094 18.5864C29.6656 21.6355 20.4227 24.7258 19.7867 24.5198C19.3203 24.3962 23.4754 21.3471 32.6335 15.1664C40.2653 10.0158 41.9612 8.6973 41.9612 7.70839C41.9612 5.9778 40.6045 6.47225 34.2023 10.5515C27.0793 15.084 16.734 21.0174 12.6213 22.9952L9.95021 24.2726L11.2222 23.1601C27.1641 9.31536 34.499 2.18699 34.2447 0.786038C33.9055 -0.944549 32.2943 -0.038051 25.6377 5.73057C14.9956 14.878 6.7279 21.3471 3.50561 22.954C0.537702 24.3962 -0.352678 23.9429 1.08888 21.7591L1.76726 20.729L0.87689 21.7179C-1.03105 23.7781 0.368101 25.1791 3.20881 24.0254C6.00712 22.9128 10.883 19.4105 21.8218 10.7163L25.6377 7.66718L21.737 11.3756C19.6171 13.4358 14.9109 17.515 11.307 20.4818C7.70308 23.4485 4.65037 26.1268 4.52318 26.4152C4.14158 27.3629 4.90477 28.0634 6.30392 28.0222C7.44868 27.981 10.459 26.5388 17.2428 22.7068C19.4051 21.4707 19.7019 21.7179 17.6244 22.9952C16.0132 23.9429 15.462 25.0143 15.886 26.2916C16.4372 28.0634 19.1507 27.4041 33.4391 22.2124C37.255 20.8114 40.4349 19.7401 40.5197 19.8225C40.6468 19.9049 38.6541 21.3059 36.1526 22.9128C31.5735 25.8796 29.2416 27.6926 29.2416 28.3106C29.2416 28.8463 30.7256 30 31.4039 30C31.7431 29.9588 33.6087 29.3407 35.6014 28.5991Z" fill="#C87D37"/>
</svg>
