<svg width="188" height="54" viewBox="0 0 188 54" fill="none" xmlns="http://www.w3.org/2000/svg">
<path d="M110.799 49.1646C110.194 48.859 109.894 47.4687 110.195 46.3689C110.352 45.796 110.445 45.3393 110.542 44.6623C110.644 43.9595 111.757 41.8717 112.533 40.9295C112.986 40.3794 115.515 35.2288 115.624 34.6339C115.71 34.1662 116.264 33.2125 117.075 32.1363C117.315 31.8177 117.511 31.5053 117.511 31.442C117.511 31.2032 116.467 30.6799 115.801 30.5846C114.778 30.4384 113.131 29.8878 112.178 29.3732C111.297 28.8979 110.529 28.5346 110.125 28.4029C109.905 28.3312 109.525 28.1053 109.28 27.9009C108.694 27.4112 108.234 27.1769 108.107 27.3036C108.051 27.3595 108.018 28.2405 108.03 29.3127C108.095 34.7908 108.08 35.0643 107.636 36.5971C107.238 37.9683 106.701 38.985 106.116 39.4708C105.221 40.214 104.748 40.3286 104.498 39.8623C104.419 39.7156 104.321 39.5956 104.28 39.5956C104.238 39.5956 104.097 39.3436 103.966 39.0356C103.603 38.185 103.576 38.1685 103.128 38.5278C102.678 38.8881 101.516 39.3843 100.64 39.5901C99.1142 39.9485 98.0496 39.2564 97.9612 37.8485C97.9126 37.0744 97.8005 37.0465 96.8878 37.5814C96.449 37.8385 95.9538 38.1243 95.7873 38.2165C95.578 38.3324 95.3417 38.6752 95.0212 39.3279C94.335 40.7256 94.0926 41.066 93.653 41.2497C93.2818 41.4048 93.2502 41.4013 93.0136 41.179C92.6305 40.8191 92.7009 40.5212 93.5787 38.7849C94.0266 37.899 94.3696 37.107 94.341 37.0249C94.2804 36.851 93.4775 37.6496 92.8421 38.5159C91.8676 39.8443 89.0472 41.1529 87.62 40.9388C87.137 40.8664 86.7521 40.5942 86.4417 40.1057C86.2237 39.7626 86.1098 39.7888 85.3627 40.3543C83.8821 41.4749 82.0303 40.9653 81.9447 39.4136C81.853 37.7525 83.2567 34.9372 85.1701 32.9446C86.3919 31.6721 87.038 31.3353 87.6498 31.6516C88.2915 31.9835 88.1248 33.0338 87.4297 33.0377C87.1633 33.0387 86.9653 33.1298 86.7308 33.3577C86.5508 33.5325 86.2219 33.8196 85.9998 33.9956C85.5637 34.3413 84.3891 35.8204 84.2406 36.211C84.1905 36.3428 83.9921 36.7142 83.7997 37.0364C83.3018 37.8702 82.9063 39.3519 83.1483 39.4772C83.6252 39.7241 84.5273 39.2174 86.1038 37.8169C86.2243 37.7099 86.4107 37.5726 86.518 37.5118C86.6264 37.4505 86.8469 37.0214 87.0138 36.5475C87.3896 35.4801 88.1954 34.0069 88.4285 33.9612C89.0253 33.8441 88.8774 35.6637 88.1785 37.0349C87.8741 37.632 87.4008 39.2556 87.4748 39.4485C87.5478 39.6385 88.4924 39.6026 88.7493 39.4001C88.8164 39.3472 89.1239 39.2214 89.4327 39.1207C89.7415 39.02 90.0535 38.8793 90.126 38.8082C90.4104 38.5293 91.2389 38.0184 91.6353 37.8774C92.1709 37.6869 92.8857 37.0417 93.9128 35.8214C94.363 35.2866 94.8332 34.753 94.9576 34.6356C95.3466 34.269 95.7402 33.6804 96.1246 32.8904C96.5221 32.0738 96.7068 31.9669 96.9856 32.3923C97.3469 32.9437 97.1317 34.2735 96.4506 35.698C96.2687 36.0784 96.313 36.1794 96.6314 36.11C96.8942 36.0529 97.3735 35.844 97.4579 35.7499C97.5363 35.6624 98.5059 35.2223 98.62 35.2223C98.6738 35.2223 98.9189 35.0543 99.1646 34.849C99.7362 34.3714 99.8739 34.3793 100.029 34.8988C100.175 35.3833 100.009 35.9597 99.5149 36.6846C98.9696 37.4855 98.8467 38.1082 99.1888 38.3378C99.4508 38.5137 100.705 38.2975 101.275 37.9784C101.467 37.8705 101.669 37.7823 101.723 37.7823C101.777 37.7823 102.052 37.6484 102.333 37.4848C102.614 37.3212 103.049 37.1215 103.298 37.0411C103.547 36.9607 103.751 36.8547 103.751 36.8057C103.751 36.5577 104.511 35.1188 104.718 34.9734C105.133 34.6828 105.389 34.9187 105.319 35.5261C105.234 36.2492 105.14 36.6375 105.012 36.7923C104.949 36.8675 104.926 36.929 104.96 36.929C104.994 36.929 104.961 37.109 104.887 37.329C104.813 37.549 104.761 37.789 104.772 37.8623C104.783 37.9357 104.797 38.0874 104.805 38.1995C104.825 38.506 105.105 38.4075 105.529 37.9455C106.718 36.6478 107.158 34.2717 107.101 29.4623C107.06 26.0415 107.017 25.8184 106.231 24.9418C105.52 24.1485 105.038 22.4438 105.319 21.7127C105.431 21.4194 106.021 21.5979 106.506 22.072C106.584 22.1481 106.739 22.2593 106.851 22.319C107.201 22.5062 107.995 24.6486 107.903 25.1567C107.808 25.6806 108.017 26.0458 108.72 26.5823C108.835 26.6703 109.197 26.9463 109.524 27.1956C109.85 27.445 110.173 27.649 110.241 27.649C110.309 27.649 110.365 27.6913 110.365 27.7431C110.365 27.795 110.449 27.8657 110.551 27.9003C110.654 27.935 111.04 28.1282 111.408 28.3297C111.974 28.6386 112.892 28.9533 113.298 28.977C113.357 28.9802 113.517 29.047 113.654 29.1248C113.791 29.2027 114.03 29.2893 114.184 29.3173C114.338 29.3453 114.514 29.4032 114.575 29.4459C114.635 29.4887 114.829 29.5366 115.005 29.5525C115.446 29.5924 116.747 29.997 117.153 30.221C117.338 30.3227 117.639 30.4295 117.823 30.4585C118.306 30.5346 118.945 30.8921 118.988 31.1098C119.008 31.2126 118.908 31.4239 118.765 31.5794C118.623 31.735 118.421 32.0542 118.318 32.2889C117.979 33.0607 117.598 33.777 117.355 34.1022C117.09 34.4573 116.765 35.0574 116.765 35.1917C116.765 35.2394 116.95 35.3932 117.177 35.5334C117.404 35.6736 117.745 36.0259 117.935 36.3163C118.248 36.7948 118.31 36.8384 118.594 36.7816C118.974 36.7056 119.723 36.2042 120.139 35.7465C120.307 35.5621 120.565 35.2801 120.711 35.1199C120.858 34.9597 121.074 34.7121 121.191 34.5697C121.309 34.4272 121.645 34.0238 121.939 33.6731C122.758 32.6954 123.068 32.2004 123.873 30.5822C124.643 29.0335 125.044 28.3437 125.475 27.8253C125.614 27.6584 125.854 27.2504 126.008 26.9187C126.162 26.587 126.357 26.2358 126.441 26.1382C126.771 25.756 126.724 25.6414 125.601 24.0899C125.437 23.8631 124.81 23.1671 124.207 22.5432C123.604 21.9193 122.872 21.0969 122.582 20.7155C122.291 20.3342 121.867 19.8571 121.64 19.6553C121.413 19.4535 120.764 18.7335 120.196 18.0553C119.629 17.3771 119.026 16.7042 118.856 16.5599L118.547 16.2976L119.003 15.8933C119.643 15.3253 120.577 15.0526 121.825 15.0697C123.854 15.0976 125.175 15.0783 126.205 15.0052C126.791 14.9636 127.679 14.9194 128.178 14.9069C128.677 14.8944 129.301 14.8526 129.565 14.814C129.829 14.7753 130.357 14.7202 130.738 14.6915C131.119 14.6627 131.629 14.5816 131.877 14.5465C132.99 14.3888 133.347 14.4102 135.645 14.3566C136.735 14.3332 137.699 14.2765 139.005 14.1593C140.154 14.056 141.212 14.0006 143.218 13.9384C144.303 13.9048 145.503 13.8549 145.885 13.8276C146.266 13.8003 147.778 13.7557 149.245 13.7286C152.265 13.6727 153.182 13.6298 153.565 13.5264C153.711 13.4867 154.198 13.4384 154.646 13.4189C155.094 13.3993 155.507 13.3544 155.564 13.3189C155.622 13.2834 156.105 13.2336 156.638 13.2082C157.17 13.1828 157.654 13.1326 157.712 13.0967C157.977 12.9332 159.906 12.9398 160.089 13.1052C160.253 13.2542 160.283 13.2487 160.41 13.046C160.486 12.9232 160.63 12.8226 160.728 12.8226C160.826 12.8226 161.127 12.728 161.397 12.6125C161.667 12.4969 161.899 12.4082 161.913 12.4153C161.926 12.4228 162.154 12.3972 162.418 12.3593C162.682 12.3214 163.114 12.2647 163.378 12.2334C163.897 12.1717 164.285 12.1035 164.285 12.0736C164.285 12.0629 164.405 12.0394 164.551 12.0207C164.698 12.0019 164.938 11.9543 165.085 11.9151C165.231 11.8757 165.423 11.8319 165.511 11.8177C166.262 11.6961 166.647 11.6147 166.738 11.5587C166.797 11.5223 166.869 11.4879 166.898 11.4821C166.927 11.4768 167.095 11.4123 167.271 11.3398C167.447 11.2673 167.692 11.2273 167.815 11.2509C167.967 11.2799 168.101 11.2047 168.23 11.0183C168.334 10.8668 168.766 10.5782 169.189 10.3771C170.246 9.8742 170.605 9.52457 171.327 8.29623L171.95 7.23638L171.925 6.16965C171.911 5.58295 171.872 5.05961 171.84 5.00668C171.703 4.78558 171.511 3.85908 171.591 3.80935C171.754 3.70855 171.972 3.86706 172.167 4.22937C172.274 4.42809 172.453 4.61456 172.564 4.64376C172.952 4.74498 173.111 5.40306 173.098 6.84942C173.091 7.58275 173.065 8.27875 173.04 8.39608C173.015 8.51342 172.991 8.68619 172.986 8.78004C172.971 9.10399 172.079 10.2798 171.111 11.2534C170.178 12.1919 168.651 13.0415 167.591 13.2115C167.415 13.2397 167.151 13.2828 167.005 13.3074C166.858 13.3318 166.378 13.3783 165.938 13.4106C164.348 13.5274 163.853 13.5707 163.591 13.6159C163.346 13.6582 162.007 13.7701 160.978 13.8343C160.743 13.8489 160.359 13.8909 160.125 13.9273C159.89 13.9638 159.418 14.0185 159.077 14.0488C158.735 14.0791 158.375 14.1462 158.277 14.1979C158.178 14.2497 157.906 14.3191 157.671 14.3521C156.645 14.4966 156.376 14.5392 156.125 14.5965C155.978 14.63 155.199 14.6754 154.394 14.6975C153.588 14.7195 152.801 14.7609 152.644 14.7895C151.419 15.0117 150.852 15.0534 148.178 15.1189C146.829 15.1519 144.933 15.2541 143.965 15.346C142.997 15.4378 141.989 15.5244 141.725 15.5385C141.461 15.5524 140.909 15.5941 140.498 15.6309C140.087 15.6679 139.175 15.7242 138.471 15.7563C137.273 15.8109 136.455 15.8784 135.698 15.9852C135.522 16.0101 134.514 16.0753 133.458 16.1301C130.961 16.2598 129.635 16.3534 129.549 16.4058C129.426 16.4814 125.999 16.4714 125.698 16.3946C125.296 16.2919 121.402 16.5768 121.259 16.7195C121.132 16.8466 121.731 17.7631 122.213 18.1782C122.505 18.43 122.85 18.8041 122.979 19.0094C123.108 19.2147 123.335 19.5077 123.482 19.6605C123.63 19.8132 123.883 20.0772 124.044 20.2471C124.205 20.417 124.384 20.6041 124.442 20.6627C124.5 20.7214 124.728 20.9911 124.949 21.2621C125.17 21.5331 125.435 21.8578 125.538 21.9836C125.641 22.1094 126.064 22.6707 126.477 23.2309C126.95 23.8715 127.29 24.2371 127.393 24.2161C127.483 24.1978 127.742 23.8227 127.967 23.3827C128.193 22.9427 128.431 22.5227 128.495 22.4494C128.56 22.3761 128.585 22.3161 128.55 22.3161C128.516 22.3161 128.622 22.1113 128.786 21.861C128.95 21.6107 129.142 21.3107 129.212 21.1943C130.001 19.8882 130.222 19.5447 130.303 19.4944C130.57 19.3292 130.895 19.7567 130.988 20.3961C131.036 20.7233 130.497 21.9353 129.731 23.2227C129 24.4531 128.42 25.6461 128.451 25.857C128.464 25.9477 128.697 26.4721 128.967 27.0224C129.238 27.5726 129.485 28.2336 129.515 28.4914C129.546 28.7492 129.593 28.9961 129.62 29.0401C129.648 29.0842 129.696 29.4932 129.728 29.9491C129.761 30.405 129.816 30.8253 129.852 30.8831C129.915 30.9843 129.901 35.3678 129.836 36.0227C129.769 36.7039 129.647 37.7377 129.614 37.9101C129.595 38.0095 129.549 38.4175 129.513 38.8168C129.373 40.3449 129.089 41.4641 128.679 42.0995C128.55 42.2993 128.325 42.6642 128.178 42.9104C127.246 44.4743 124.828 43.0033 124.044 40.3961C123.724 39.3308 123.857 35.6411 124.235 35.1103C124.358 34.9386 124.452 34.7136 124.445 34.6104C124.404 33.9708 124.466 32.7261 124.552 32.5016C124.616 32.3312 124.615 32.2361 124.548 32.2361C124.491 32.2361 124.444 32.3244 124.444 32.4323C124.444 32.5402 124.257 32.8022 124.027 33.0145C123.798 33.2268 123.58 33.536 123.544 33.7017C123.477 34.006 122.114 35.5041 121.298 36.1696C119.222 37.8629 118.274 38.0287 117.356 36.859C117.119 36.5562 116.859 36.2795 116.778 36.2441C116.477 36.1112 115.83 37.0513 115.646 37.8894C115.64 37.9187 115.593 38.1347 115.541 38.3694C115.49 38.6041 115.442 38.8201 115.435 38.8494C115.427 38.8787 115.366 39.0707 115.297 39.2761C115.228 39.4814 115.144 39.8174 115.111 40.0227C115.077 40.2281 114.984 40.5881 114.904 40.8227C114.641 41.5879 114.332 42.6192 114.104 43.4894C113.981 43.9587 113.813 44.5107 113.729 44.7161C113.646 44.9214 113.432 45.5503 113.254 46.1136C113.076 46.6769 112.761 47.4375 112.554 47.8038C112.347 48.1702 112.178 48.4919 112.178 48.5188C112.178 48.5457 112.046 48.7035 111.884 48.8695C111.53 49.2338 111.144 49.3387 110.799 49.1646ZM112.169 46.2748C112.615 45.3301 113.171 43.3188 113.025 43.1756C112.867 43.0201 112.462 43.4999 112.251 44.0945C112.16 44.3481 111.939 44.9557 111.759 45.4447C111.133 47.1439 111.452 47.791 112.169 46.2748ZM126.98 41.9668C127.33 41.5087 128.149 39.0718 128.233 38.242C128.288 37.6989 128.354 34.6988 128.393 31.0037C128.401 30.1865 128.354 29.6795 128.24 29.3503C128.149 29.0892 128.074 28.8008 128.073 28.7093C128.072 28.6179 128.005 28.4527 127.925 28.3423C127.734 28.0821 127.61 28.3111 127.021 30.0041C126.788 30.6741 126.521 31.4008 126.427 31.619C126.334 31.8372 126.23 32.1972 126.197 32.419C126.163 32.6408 126.045 33.2063 125.934 33.6756C125.823 34.1449 125.708 34.7209 125.679 34.9556C125.649 35.1903 125.589 35.6703 125.545 36.0223C125.402 37.1669 125.465 39.582 125.663 40.5023C125.688 40.6196 125.712 40.9483 125.716 41.2328C125.731 42.189 126.48 42.6234 126.98 41.9668ZM106.804 23.9597C106.723 23.2748 106.483 22.7423 106.255 22.7423C105.949 22.7423 106.02 23.6273 106.369 24.155C106.754 24.7367 106.888 24.6765 106.804 23.9597ZM49.1058 43.5431C48.8829 43.5015 48.6453 43.4122 48.5778 43.3448C48.5104 43.2774 48.3626 43.2223 48.2493 43.2223C48.1361 43.2223 47.8033 43.0497 47.5098 42.8389C47.0879 42.5358 46.9066 42.467 46.6437 42.5101C46.4609 42.5401 45.9909 42.6116 45.5995 42.6688C45.208 42.7261 44.848 42.7971 44.7995 42.8267C44.5249 42.9944 42.8265 43.0096 42.2751 42.8494C41.3796 42.589 39.8579 41.1898 39.8579 40.6266C39.8579 40.5675 39.7842 40.4376 39.6941 40.338C39.604 40.2385 39.5136 39.9947 39.4934 39.7963C39.4059 38.9412 39.2227 38.7484 38.7369 39.0005C38.5762 39.0838 38.3788 39.1268 38.2983 39.0959C38.2177 39.0649 37.9195 39.1888 37.6355 39.371C37.3516 39.5532 37.0869 39.7023 37.0474 39.7023C37.0078 39.7023 36.7001 39.8892 36.3634 40.1176C35.7771 40.5154 35.1076 40.8002 34.3167 40.9885C33.3279 41.2238 31.8833 40.5675 30.7275 39.3578C29.7852 38.3714 29.8379 38.3712 28.7971 39.3652C28.3757 39.7679 27.8719 40.1632 27.6777 40.2436C27.3277 40.3885 27.0865 40.556 26.7515 40.8866C26.1212 41.5085 24.8026 41.6774 23.9191 41.2494C23.4755 41.0344 22.2324 39.8866 22.2811 39.737C22.2969 39.6883 22.1979 39.4679 22.0609 39.247C21.924 39.0262 21.8029 38.7862 21.7919 38.7137C21.7809 38.6413 21.7417 38.5336 21.7046 38.4745C21.6676 38.4154 21.6017 38.1754 21.5583 37.9411C21.5149 37.7069 21.3931 37.2634 21.2878 36.9555C21.1272 36.4864 21.1022 36.1194 21.1332 34.6889C21.1584 33.5208 21.134 32.9819 21.0556 32.9819C20.838 32.9819 19.7156 34.3166 19.5755 34.7419C19.4896 35.0025 19.1974 35.4039 18.8247 35.7731C18.4891 36.1055 18.0034 36.7055 17.7452 37.1064C17.1384 38.0488 15.9285 39.553 15.4998 39.8981C15.3154 40.0465 14.9006 40.4398 14.5779 40.7721C13.686 41.6905 12.3546 42.45 10.8446 42.9018C10.4046 43.0335 9.91079 43.1815 9.74726 43.2307C9.39721 43.3361 8.97949 43.2017 8.62083 42.8682C7.45398 41.783 7.18559 38.2085 8.13357 36.3785C8.23512 36.1824 8.33476 35.8299 8.35491 35.5953C8.39886 35.0839 8.99058 33.863 9.2326 33.7846C9.32721 33.7539 9.51732 33.5311 9.65509 33.2893C10.2358 32.2705 10.9635 31.8753 11.1189 32.4945C11.1883 32.7712 10.7331 33.7167 10.2593 34.2798C9.88558 34.7239 9.34554 35.9329 9.22114 36.6039C9.16087 36.9291 9.00039 37.5141 8.8646 37.9037C8.54541 38.8196 8.44812 39.6838 8.59296 40.3171C8.65643 40.5948 8.7316 40.9634 8.75992 41.1363C8.91721 42.0966 10.2122 42.2462 11.46 41.4481C11.7691 41.2504 12.0835 41.0886 12.1587 41.0886C12.2337 41.0886 12.3508 41.033 12.4187 40.9651C12.4867 40.8972 12.7482 40.8372 13.0001 40.8318C13.4478 40.8222 13.4572 40.8145 13.4244 40.4862C13.4013 40.2561 13.4523 40.105 13.586 40.0062C13.6934 39.9268 14.0205 39.5747 14.313 39.2236C14.6053 38.8726 14.9306 38.4894 15.0357 38.3721C15.1408 38.2548 15.3536 37.9426 15.5084 37.6783C15.6633 37.414 16.0933 36.7956 16.464 36.3042C16.8347 35.8128 17.1379 35.3764 17.1379 35.3344C17.1379 35.2925 17.4499 34.9502 17.8313 34.5738C18.2126 34.1974 18.5246 33.8384 18.5246 33.7759C18.5246 33.7135 18.6584 33.5213 18.8221 33.3488C19.2816 32.8645 19.8046 32.1642 19.8046 32.0333C19.8046 31.9684 19.8453 31.9153 19.895 31.9153C19.9448 31.9153 20.071 31.7257 20.1755 31.4939C20.2801 31.2621 20.4453 30.9861 20.5428 30.8806C20.6403 30.775 20.8752 30.4624 21.0647 30.1859C21.2543 29.9094 21.4683 29.6454 21.5403 29.5992C21.7144 29.4876 22.1512 28.6648 22.1512 28.4486C22.1512 28.3545 22.2439 28.1 22.3571 27.8831C22.4704 27.6661 22.6936 27.1766 22.8531 26.7953C23.0127 26.4139 23.1732 26.0779 23.2098 26.0486C23.2464 26.0193 23.5335 25.6113 23.8477 25.1419C24.1619 24.6726 24.4608 24.2726 24.5118 24.253C24.5628 24.2335 24.6046 24.157 24.6046 24.0829C24.6046 24.0089 24.6954 23.8662 24.8062 23.7659C24.9866 23.6026 25.747 22.3748 26.1009 21.6753C26.1751 21.5286 26.3008 21.3702 26.3802 21.3233C26.4597 21.2764 26.5246 21.1904 26.5246 21.1321C26.5246 21.0739 26.5722 20.9683 26.6302 20.8974C26.6884 20.8266 27.0082 20.3966 27.3411 19.9419C27.6739 19.4873 27.9864 19.1153 28.0354 19.1153C28.0845 19.1153 28.1246 19.0632 28.1246 18.9996C28.1246 18.9361 28.3766 18.6202 28.6846 18.2977C28.9926 17.9753 29.2866 17.6313 29.3379 17.5334C29.3892 17.4355 29.4852 17.3073 29.5512 17.2486C29.6172 17.1899 29.8149 16.9305 29.9905 16.6721C30.1661 16.4138 30.4316 16.072 30.5805 15.9126C30.7293 15.7532 30.9093 15.5086 30.9804 15.369C31.1651 15.0066 31.3242 14.7688 31.7779 14.1775C31.9979 13.8907 32.1779 13.5888 32.1779 13.5066C32.1779 13.4244 32.2739 13.2971 32.3913 13.2239C32.5086 13.1506 32.6046 13.0388 32.6046 12.9755C32.6046 12.9123 32.7126 12.7593 32.8446 12.6358C32.9766 12.5123 33.2719 12.1544 33.5008 11.8405C34.2307 10.8397 34.9161 10.5697 35.4043 11.0905C35.5365 11.2316 35.8439 11.4378 36.0874 11.549C36.8271 11.8865 37.2836 13.2434 36.9693 14.1701C36.807 14.6483 36.8131 14.6184 36.7228 15.3819C36.6846 15.7046 36.6279 16.1846 36.5967 16.4486C36.5397 16.9316 35.8606 19.5784 35.4884 20.7686C35.3783 21.1206 35.256 21.6464 35.2166 21.937C35.1773 22.2276 34.8921 23.1156 34.5829 23.9104C34.2738 24.7051 33.9933 25.4753 33.9597 25.6219C33.8557 26.0757 33.3494 27.5756 33.1675 27.9686C33.0725 28.1739 32.9827 28.4052 32.9681 28.4824C32.9533 28.5596 32.8485 28.8237 32.7349 29.0691C32.5046 29.567 31.8579 31.4124 31.8579 31.572C31.8579 31.6284 31.6113 32.1216 31.3099 32.668C31.0084 33.2144 30.5694 34.0966 30.3344 34.6284C30.0993 35.1602 29.7939 35.7309 29.6558 35.8968C29.5176 36.0626 29.4046 36.3029 29.4046 36.4308C29.4046 36.5699 29.1797 36.8853 28.8446 37.2162C28.5366 37.5203 28.0711 37.988 27.81 38.2556C27.549 38.5231 27.2788 38.7419 27.2095 38.7419C27.1403 38.7419 26.9153 38.9339 26.7096 39.1686C26.1028 39.8609 25.3574 39.5278 25.7734 38.7504C26.064 38.2075 26.2542 34.7436 26.0574 33.5783C25.8549 32.3785 25.6497 31.6187 25.4582 31.3596C25.3407 31.2006 25.2446 31.0295 25.2446 30.9792C25.2446 30.929 25.062 30.7853 24.8389 30.6599L24.4332 30.4318L23.9056 30.6791C22.9651 31.1197 22.3527 31.8914 22.1628 32.8753C22.1005 33.1979 22.0209 33.6059 21.9859 33.7819C21.6211 35.6146 22.1149 38.0308 23.0588 39.0315C23.2637 39.2487 23.4313 39.4567 23.4313 39.4939C23.4313 39.691 24.5437 40.1454 25.0602 40.1593C26.0818 40.1866 26.5355 39.9786 27.4231 39.076C29.9439 36.5125 30.6846 35.644 30.6846 35.2519C30.6846 35.1682 31.1269 34.9019 31.2659 34.9019C31.2867 34.9019 31.3535 35.0446 31.4143 35.2191C31.5311 35.5541 31.516 35.7131 31.2615 36.8209C31.0651 37.6759 31.0463 38.3145 31.2086 38.6177C31.2765 38.7447 31.3036 38.8486 31.2688 38.8486C31.1464 38.8486 32.3404 39.94 32.5485 40.0183C32.9736 40.1784 34.1274 40.0247 35.0047 39.6914C35.298 39.5799 35.6129 39.4887 35.7046 39.4887C35.7962 39.4886 35.9741 39.3925 36.1001 39.2753C36.226 39.1579 36.3671 39.0612 36.4136 39.0603C36.7014 39.055 39.0382 36.1503 39.3032 35.4687C39.3675 35.3036 39.5003 34.7606 39.5985 34.2619C39.8394 33.0392 39.8274 33.1077 39.9132 32.4753C39.955 32.1673 40.0317 31.9153 40.0836 31.9153C40.1356 31.9153 40.1668 31.8793 40.1532 31.8353C40.1317 31.7663 40.3274 31.1742 40.7339 30.078C40.9332 29.5406 41.1843 29.3376 41.5009 29.458C42.2804 29.7543 42.2657 32.2744 41.478 33.3806C41.3621 33.5433 41.0392 34.1801 40.7604 34.7958C40.2644 35.891 40.2524 35.943 40.2038 37.1913C40.1571 38.3927 40.2682 39.3597 40.5041 39.8033C40.5524 39.8942 40.6712 40.191 40.768 40.4627C41.0046 41.1266 41.5109 41.7286 41.8328 41.7286C41.9718 41.7286 42.1157 41.7776 42.1527 41.8374C42.2506 41.9958 44.7087 41.8766 45.3261 41.6835C45.9024 41.5033 45.8642 41.5146 46.139 41.4427C46.3941 41.3761 46.4316 41.2367 46.4605 40.2466C46.492 39.1665 46.925 37.3554 47.3347 36.5899C47.4076 36.4535 47.4658 36.3179 47.4638 36.2886C47.4617 36.2593 47.5002 36.1393 47.5489 36.0219C47.5977 35.9046 47.7851 35.4168 47.9653 34.9379C48.347 33.9237 49.5478 32.5403 50.1513 32.4195C51.1694 32.2158 51.9076 32.8645 52.0992 34.1311C52.3619 35.8677 52.1256 37.1227 51.3105 38.32C51.1267 38.59 50.8929 38.9753 50.7909 39.1764C50.6889 39.3774 50.0265 40.1016 49.319 40.7856C48.0562 42.0062 48.0355 42.0338 48.1989 42.2789C48.2904 42.4162 48.4792 42.5359 48.6184 42.5448C48.7575 42.5533 48.9193 42.5705 48.978 42.5822C49.3579 42.6581 49.9388 42.5107 50.6438 42.1597C51.2991 41.8334 52.3816 41.401 52.658 41.3551C52.8046 41.3308 53.4714 40.9319 53.5647 40.8128C53.6233 40.7378 53.8154 40.6539 53.9914 40.6263C54.1674 40.5987 54.6289 40.426 55.0171 40.2423C55.4052 40.0587 55.833 39.8873 55.9677 39.8613C56.1024 39.8354 56.514 39.6688 56.8822 39.4912C57.6966 39.0984 57.9768 39.0567 58.1362 39.3044C58.2753 39.5204 57.4344 40.3708 56.6847 40.7721C56.4647 40.8899 56.2847 41.0496 56.2847 41.1271C56.2847 41.328 55.3585 41.7993 54.7914 41.8871C54.5274 41.9279 53.9274 42.1208 53.458 42.3157C50.4932 43.5469 49.949 43.7006 49.1058 43.5431ZM48.7879 39.6284C49.1598 39.2357 49.6068 38.6597 49.781 38.3484C49.9553 38.037 50.2456 37.5181 50.4261 37.1953C51.3394 35.5618 51.4672 33.5117 50.6555 33.5167C50.2017 33.5199 49.3441 34.6163 49.0299 35.5956C48.9546 35.8302 48.7418 36.3343 48.557 36.7157C48.213 37.4255 47.9813 38.1813 47.7491 39.3503C47.506 40.5742 47.8138 40.6566 48.7879 39.6284ZM28.1596 36.0986C29.1788 34.8212 31.2874 30.932 31.3703 30.1767C31.3846 30.0466 31.4473 29.8447 31.5098 29.7279C31.5722 29.6111 31.6524 29.3319 31.688 29.1075C31.7236 28.883 31.8697 28.451 32.0128 28.1475C32.2583 27.6267 32.6716 26.5546 33.0892 25.3556C33.1914 25.0623 33.3868 24.5583 33.5234 24.2356C33.6601 23.9129 33.9925 22.9049 34.2622 21.9956C34.5318 21.0862 34.7804 20.2702 34.8146 20.1822C34.8969 19.9707 34.9196 19.8781 34.9972 19.4356C35.0333 19.2303 35.1074 18.9422 35.162 18.7956C35.2929 18.444 35.4969 17.6495 35.5592 17.2489C35.5866 17.0729 35.7014 16.5929 35.8143 16.1822C36.0957 15.1585 36.312 12.6043 36.1477 12.2438C35.9046 11.7102 34.9861 11.754 34.4035 12.3269C34.2061 12.521 33.8053 12.9878 33.5129 13.3643C33.2204 13.7408 32.9564 14.0729 32.9262 14.1022C32.896 14.1315 32.6122 14.5395 32.2956 15.0089C31.9789 15.4782 31.6543 15.9342 31.5742 16.0222C31.4941 16.1102 30.8941 16.9022 30.2408 17.7822C29.5876 18.6622 29.02 19.4062 28.9796 19.4355C28.9392 19.4649 28.768 19.7289 28.5993 20.0222C28.4305 20.3155 28.142 20.7715 27.9581 21.0355C27.7742 21.2995 27.5921 21.5875 27.5535 21.6755C27.4482 21.9151 26.7428 22.9607 26.2487 23.6097C25.8228 24.169 25.533 24.6455 24.8949 25.8355C24.7219 26.1582 24.5186 26.4942 24.4432 26.5822C24.0129 27.0839 22.7913 29.4507 22.7913 29.7825C22.7913 29.989 22.808 29.9914 23.1756 29.8379C24.283 29.3752 25.5008 29.9027 25.8422 30.9931C25.8816 31.1191 25.9994 31.3317 26.1038 31.4654C26.2082 31.5991 26.3269 31.9111 26.3677 32.1587C26.4084 32.4063 26.5128 32.7769 26.5996 32.9823C26.6864 33.1876 26.77 33.6436 26.7854 33.9956C26.8009 34.3476 26.867 34.9236 26.9325 35.2756C26.998 35.6276 27.0791 36.0795 27.1127 36.2799C27.2409 37.0434 27.4322 37.0103 28.1596 36.0986ZM59.9811 41.5338C59.8047 41.3388 59.7336 40.6049 59.8846 40.5378C59.9286 40.5183 60.0462 40.3549 60.146 40.1748C60.307 39.884 60.4886 39.413 61.3157 37.1422C61.4332 36.8196 61.5921 36.4116 61.6689 36.2356C61.7456 36.0596 61.8909 35.5556 61.9917 35.1156C62.0925 34.6756 62.2345 34.1956 62.3072 34.0489C62.38 33.9022 62.5485 33.4463 62.6817 33.0356C62.815 32.6249 62.9921 32.1796 63.0753 32.046C63.1585 31.9124 63.3209 31.4981 63.436 31.1254C63.6889 30.3066 63.8915 30.0901 64.1566 30.3552C64.5255 30.724 64.3339 32.4878 63.7439 34.1556C63.6712 34.3609 63.5498 34.7035 63.4739 34.9168C63.2713 35.4868 63.3724 35.4727 64.0491 34.8364C64.3839 34.5215 64.8499 34.1314 65.0846 33.9697C65.3193 33.8079 65.6553 33.5403 65.8313 33.375C66.3344 32.9023 67.8452 31.9062 68.1246 31.863C68.1539 31.8587 68.2911 31.7919 68.4294 31.7153C68.7533 31.5357 68.9234 31.6933 68.8257 32.0827C68.7527 32.3735 67.6753 33.5156 67.474 33.5156C67.1043 33.5156 65.8054 34.6348 65.2456 35.4356C64.1193 37.0469 64.1164 37.0602 64.7233 37.8639C65.3005 38.6285 65.921 38.9125 67.4846 39.1281C67.7486 39.1645 68.0425 39.235 68.1376 39.2848C68.6005 39.5267 69.889 38.7265 70.7539 37.66C71.5885 36.6308 71.735 36.7244 71.4442 38.1006C71.2894 38.8336 70.6277 39.5497 69.6775 40.0128C69.0541 40.3166 68.9993 40.3246 68.1246 40.2385C67.1827 40.1458 66.6538 40.0442 66.4713 39.9208C66.4126 39.8811 66.1726 39.835 65.938 39.8184C65.3544 39.7769 65.1945 39.6763 64.3545 38.8223C63.55 38.0044 63.3249 37.5832 63.2722 36.7969C63.2134 35.9185 63.1334 36.0226 62.2291 38.1556C62.1048 38.449 61.8934 38.8577 61.7595 39.064C61.6255 39.2703 61.4867 39.6063 61.4511 39.8107C61.2209 41.1315 60.4426 42.0438 59.9811 41.5338ZM76.3379 41.0103C74.4768 40.7246 72.9816 39.1858 73.01 37.5854C73.053 35.1632 75.676 31.4429 77.7431 30.8721C78.1394 30.7627 78.9121 30.9449 78.9855 31.1651C79.0058 31.2259 79.0871 31.2756 79.1662 31.2756C79.5743 31.2756 79.9189 32.221 79.6814 32.6889C79.474 33.0975 79.2655 33.055 79.047 32.5598C78.833 32.0747 78.6902 32.0191 78.0979 32.1895C76.6553 32.6048 74.0979 36.525 74.0979 38.321C74.0979 39.1116 75.1146 39.6491 76.8179 39.7591C78.4224 39.8627 78.7249 39.9637 78.6631 40.3755C78.5926 40.8451 77.3938 41.1724 76.3379 41.0103ZM143.436 38.2824C142.413 37.9821 142.051 37.5595 141.835 36.4144C141.704 35.7226 141.666 35.6489 141.439 35.6489C141.203 35.6489 140.777 35.8319 140.658 35.9839C140.629 36.0214 140.317 36.221 139.965 36.4273C139.613 36.6337 139.208 36.9043 139.065 37.0286C138.922 37.153 138.682 37.284 138.532 37.3199C138.381 37.3557 138.21 37.422 138.151 37.4674C138.059 37.5389 137.853 37.5873 137.024 37.7332C136.932 37.7494 136.62 37.8298 136.33 37.912C136.041 37.9941 135.697 38.0526 135.565 38.0418C135.433 38.031 135.184 38.0162 135.013 38.0089C134.537 37.9886 133.714 37.1854 133.468 36.5013C132.988 35.1675 133.732 33.1149 134.921 32.4921C135.285 32.3017 135.512 32.5774 135.546 33.2489C135.584 34.0227 135.543 34.1179 134.909 34.7398C134.564 35.079 134.291 35.4102 134.303 35.476C134.545 36.7623 135.328 36.9058 137.296 36.0245C138.845 35.3308 139.58 34.9613 139.903 34.7134C140.112 34.5533 140.458 34.3023 140.672 34.1556C141.709 33.445 142.376 32.6658 142.573 31.9346C142.641 31.6821 142.789 31.3225 142.901 31.1356C143.014 30.9486 143.257 30.5076 143.441 30.1556C143.624 29.8036 143.889 29.3628 144.03 29.1761C144.17 28.9893 144.285 28.8059 144.285 28.7685C144.285 28.6864 145.178 27.6266 145.603 27.2048C146.158 26.6531 146.552 26.8762 146.509 27.7176C146.485 28.1723 146.356 28.4201 145.383 29.8749C144.779 30.7788 144.285 31.5332 144.285 31.5513C144.285 31.5694 144.109 31.8832 143.895 32.2486C143.556 32.8271 143.324 33.4025 143.157 34.0756C143.02 34.6313 142.993 34.7918 142.946 35.3289C142.917 35.6516 142.885 36.0116 142.874 36.1289C142.743 37.528 143.857 37.6692 146.418 36.5784C146.623 36.4909 146.911 36.3837 147.058 36.3401C147.375 36.2458 147.726 36.0096 148.664 35.2583C149.431 34.6439 149.452 34.6119 149.956 33.3078C150.504 31.8924 151.671 30.7396 152.07 31.2205C152.511 31.7515 152.196 32.8526 151.262 34.0489C150.784 34.6616 150.571 35.095 150.625 35.3427C150.793 36.1056 150.817 36.1432 151.254 36.3401C152.157 36.7475 152.401 36.6727 152.894 35.8362C153.308 35.1355 153.429 34.271 153.468 31.7292C153.478 31.128 153.523 30.432 153.569 30.1825C153.615 29.9331 153.678 29.5021 153.708 29.2248C153.797 28.4032 154.104 28.2244 154.354 28.8489C154.431 29.0396 154.532 29.2916 154.579 29.4089C154.626 29.5263 154.684 29.7414 154.708 29.887C154.732 30.0326 154.772 30.1723 154.798 30.1974C154.87 30.2695 155.709 30.2433 156.178 30.1544C156.413 30.1099 156.701 30.0631 156.818 30.0506C156.935 30.038 157.111 29.9927 157.21 29.9501C157.308 29.9074 157.452 29.8596 157.53 29.844C157.809 29.7877 159.088 29.16 159.159 29.0439C159.2 28.9787 159.274 28.951 159.325 28.9823C159.375 29.0135 159.447 28.9908 159.484 28.9306C159.52 28.871 159.625 28.8222 159.715 28.8222C159.806 28.8222 160.023 28.7022 160.197 28.5556C160.372 28.4089 160.6 28.2889 160.705 28.2889C160.91 28.2889 161.453 28.7746 161.466 28.9701C161.47 29.0355 161.498 29.1849 161.527 29.3022C161.773 30.2915 161.561 33.2353 161.14 34.6889C161.029 35.0702 160.912 35.5595 160.88 35.7762C160.638 37.3948 159.538 38.2934 159.28 37.084C159.221 36.8086 159.473 34.7743 159.589 34.5866C159.61 34.5523 159.657 34.3094 159.695 34.0466C159.732 33.7839 159.78 33.4969 159.802 33.4089C159.871 33.1359 160.004 31.5722 160.011 30.9556C160.019 30.2593 159.824 30.1584 159.175 30.523C158.305 31.0116 156.816 31.4927 155.998 31.5494C155.035 31.6161 154.728 31.8737 154.673 32.6622C154.612 33.5403 154.53 34.334 154.475 34.5822C154.376 35.0293 154.3 35.4703 154.255 35.8622C154.191 36.4109 153.734 37.4477 153.416 37.7662C153.161 38.021 153.073 38.0417 152.336 38.0208C151.118 37.9863 150.8 37.7767 150.015 36.4898C149.725 36.0133 149.484 36.043 148.689 36.6537C147.629 37.4675 147.305 37.6407 145.971 38.106C144.583 38.5901 144.503 38.5957 143.436 38.2824ZM178.018 38.4632C177.529 38.248 178.643 36.1822 179.248 36.1822C179.903 36.1822 179.824 37.4173 179.12 38.1761C178.891 38.4229 178.285 38.5808 178.018 38.4632ZM170.51 37.7023C169.868 36.9864 169.423 35.9536 169.402 35.1264C169.38 34.2914 169.608 32.6798 169.827 32.1193C169.909 31.9087 170.007 31.5255 170.046 31.2678C170.084 31.01 170.234 30.4624 170.378 30.0507C170.738 29.0242 170.805 28.7903 170.783 28.6356C170.773 28.5622 170.759 28.4542 170.751 28.3956C170.736 28.2736 169.462 28.2517 169.294 28.3705C169.233 28.4136 169.17 28.6409 169.153 28.8755C169.136 29.1102 168.939 29.7102 168.714 30.2089C168.301 31.1243 168.229 31.3246 168.134 31.8089C167.703 34.0198 167.066 34.9747 165.17 36.2564C164.614 36.6328 163.496 36.5899 162.993 36.1728C162.196 35.5111 161.833 32.4139 162.402 31.1277C163.124 29.4938 165.39 27.3824 166.125 27.6585C166.481 27.7924 166.452 28.3259 166.071 28.6363C164.225 30.1422 163.333 31.8281 163.439 33.6087C163.466 34.0561 163.49 34.5053 163.493 34.6068C163.503 34.9444 164.06 35.1079 164.465 34.8914C165.16 34.5194 165.76 33.7644 166.428 32.4211C166.8 31.6725 167.12 30.9525 167.138 30.8211C167.157 30.6897 167.307 30.2943 167.472 29.9423C167.77 29.306 168.05 28.4817 168.143 27.9712C168.17 27.8243 168.259 27.6297 168.341 27.5387C168.548 27.3106 169.804 26.9663 170.404 26.9734C171.372 26.9848 171.482 27.0129 171.863 27.3476C172.285 27.7182 172.298 27.8475 172.035 29.0889C171.936 29.5546 171.825 30.1176 171.646 31.0512C171.587 31.3643 171.373 32.037 171.287 32.1823C171.216 32.302 171.19 32.4235 171.102 33.0356C171.068 33.2703 170.973 33.7652 170.889 34.1355C170.67 35.1113 170.768 36.6144 171.034 36.3486C171.066 36.3168 171.156 36.3444 171.236 36.4104C171.572 36.6894 172.474 36.5341 172.845 36.1334C173.44 35.49 173.308 35.2409 172.648 35.7632C172.064 36.2262 171.762 36.1644 171.719 35.573C171.665 34.8309 171.94 34.5574 173.027 34.2715C173.547 34.1348 173.823 34.2836 174.088 34.8438C174.622 35.969 173.885 37.7782 172.89 37.7838C172.733 37.7847 172.413 37.8546 172.178 37.9391C171.389 38.2234 170.918 38.1566 170.51 37.7023Z" fill="#223642"/>
</svg>
