<svg width="83" height="89" viewBox="0 0 83 89" fill="none" xmlns="http://www.w3.org/2000/svg">
<path d="M81.7532 39.6913C82.0946 38.3514 82.5918 21.825 82.46 17.5948C82.4073 16.2286 82.3024 18.1728 82.224 21.8249C82.0412 31.5201 81.543 39.8489 81.1227 40.2693C80.9388 40.4532 80.6235 40.4531 80.4658 40.2955C79.8351 39.6648 78.4684 35.3031 76.1815 26.5536C73.6318 16.8056 69.8993 3.93077 69.0057 1.77619C68.4801 0.514965 68.375 0.409856 67.8758 0.646265C66.9825 1.014 66.6938 3.45746 66.1959 14.4663C65.7767 24.503 64.9898 35.8533 64.4911 40.0309C64.1761 42.921 63.9395 41.8437 62.9663 32.8316C61.9931 23.9245 61.8354 23.0312 61.2048 22.8734C60.2326 22.6369 59.7073 24.0556 59.2349 28.4171C58.605 34.3024 58.0012 38.6901 57.8173 38.874C57.7385 38.9528 57.502 38.6638 57.318 38.2171C56.7398 36.9559 55.4261 36.5353 54.6379 37.3235C54.2701 37.6913 53.5084 39.4515 52.9043 41.2644C52.3528 43.0772 51.8275 44.7062 51.7487 44.8901C51.6699 45.074 51.4596 44.2857 51.2493 43.1297C50.9075 41.1065 50.9074 41.054 49.909 41.0013C48.569 40.9223 48.3851 41.1588 47.9651 43.7861C47.7287 45.021 47.4924 46.3609 47.3874 46.7813C47.1773 47.4119 47.1247 47.4119 46.8882 46.7024C46.7567 46.2558 46.599 45.8353 46.5202 45.7565C46.2049 45.4412 44.7073 45.6775 44.2869 46.0978C44.0242 46.3605 43.2626 49.0667 42.5798 52.1144C40.374 61.8881 37.8791 71.9509 37.6163 71.9508C37.3799 71.9771 35.1711 57.0531 34.4346 50.4319C33.8034 44.4939 33.6194 43.7319 32.7522 43.2326C31.78 42.6282 30.913 43.0222 30.5453 44.1256C30.414 44.6248 29.8888 47.2522 29.4162 49.9321C28.3922 55.7911 27.0792 61.7815 25.766 66.2479L24.8205 69.4533L24.4262 67.798C24.1896 66.8783 23.2695 62.3853 22.3494 57.7873C21.4555 53.2154 20.4829 49.0903 20.2201 48.6173C19.8259 48.013 19.4055 47.8027 18.6436 47.8289C17.6977 47.8813 17.5926 47.9864 17.1724 49.1424C16.936 49.8518 16.5421 51.98 16.3321 53.9242C15.6235 60.046 14.4945 67.534 14.1268 68.6901L13.7854 69.8198L13.4437 68.69C13.2597 68.0857 12.8654 66.2727 12.6025 64.6962C12.0766 61.6483 11.3145 60.3608 10.2636 60.8336C9.92207 60.965 9.52803 61.5692 9.39673 62.1735C9.23915 62.7515 8.84523 64.4068 8.5301 65.773C8.03112 67.6909 7.61084 68.5842 6.71762 69.4774C5.79813 70.3969 5.37785 71.2902 4.90514 73.1819C4.56374 74.5744 3.80208 77.1229 3.22426 78.8569C2.06859 82.2724 0.624275 88.762 0.992112 88.762C1.57015 88.7621 4.09181 83.1922 5.93039 77.9376C7.05978 74.5484 8.34686 71.527 8.92481 70.7914C9.47648 70.0821 10.0806 68.7421 10.2907 67.7963C10.4482 66.8504 10.6846 66.1411 10.7635 66.2199C10.8423 66.2987 11.1314 67.376 11.3943 68.6372C12.0516 71.869 12.6297 72.7098 14.0222 72.421C15.0731 72.2109 15.1782 72.1058 15.7035 70.5294C16.045 69.6099 16.8327 65.1434 17.4627 60.5717C18.0928 56.0527 18.7492 52.3481 18.9068 52.3481C19.0119 52.3481 19.4851 54.1874 19.9057 56.447C22.4033 69.7683 23.008 72.6848 23.3496 73.0264C24.0854 73.7622 25.4253 73.4733 26.1083 72.475C26.7388 71.5292 28.3408 65.3549 30.4679 55.7125C31.0981 52.875 31.6758 50.3002 31.7809 49.9849C31.9122 49.3281 33.1217 57.0528 34.5418 67.9305C35.094 72.1607 35.6725 75.9968 35.8302 76.5223C36.1456 77.5208 37.2755 78.2829 37.801 77.8625C38.773 77.0482 39.1407 75.9447 40.6901 68.9297C42.8959 59.1034 44.9181 50.7221 45.1545 50.4857C45.2596 50.3806 45.4436 51.1426 45.5751 52.1673C45.8118 54.1904 46.7578 55.2941 47.7036 54.6636C47.9926 54.4797 48.4654 53.061 48.7279 51.4845C49.4106 47.5435 49.4894 47.307 49.726 48.5945C49.9626 50.0922 50.6984 50.6703 51.7493 50.25C52.5375 49.9874 52.8264 49.278 54.0345 45.0743C54.7962 42.4207 55.5053 40.24 55.6104 40.24C55.7418 40.2663 55.9258 40.6604 56.0835 41.1334C56.2412 41.6063 56.7142 42.237 57.1346 42.4998C57.7915 42.894 58.1068 42.7889 58.8424 42.0533C59.578 41.3177 59.8406 40.2668 60.2868 36.1418C60.5754 33.383 60.8379 31.176 60.9168 31.2549C60.9693 31.3074 61.2323 33.3568 61.469 35.8004C62.074 41.6596 62.4947 43.8141 63.2568 44.944C63.7298 45.6797 64.0451 45.8374 64.4917 45.6535C65.9893 44.9969 66.0155 44.8129 66.9842 15.0444C67.3507 3.95675 67.6394 0.672511 68.1912 1.22433C68.6116 1.64477 72.6332 15.3341 75.4458 25.9755C78.2583 36.6168 79.2308 39.5859 80.2556 40.6107C81.1753 41.5304 81.333 41.4254 81.7532 39.6913Z" fill="#C87D37"/>
</svg>
