<svg width="129" height="76" viewBox="0 0 129 76" fill="none" xmlns="http://www.w3.org/2000/svg">
<path d="M124.725 14.9554C122.179 15.8511 117.586 18.4037 113.357 21.1355C104.08 27.3155 103.626 27.5842 103.671 26.8229C103.626 26.5094 104.49 24.942 105.536 23.4642C108.218 19.4785 106.991 18.6276 103.034 21.7176C92.6209 29.7338 88.7102 32.2417 87.8462 31.3908C87.0277 30.5847 88.8921 27.7634 92.8483 23.8672C96.5317 20.2398 97.4866 18.4933 96.4407 17.4633C96.2588 17.2841 93.5759 19.5681 90.5291 22.5685C85.2087 27.8081 76.5687 35.063 74.3405 36.1826C71.6575 37.5708 72.8853 34.6599 77.751 27.9873C80.4794 24.2255 81.0251 22.7924 79.479 23.1507C79.0243 23.2403 76.7506 25.1212 74.295 27.3603C70.0204 31.3012 65.7004 33.7643 64.7455 32.8238C63.6086 31.7043 65.3821 28.9725 71.1573 22.8372C76.023 17.6872 77.2053 16.1646 77.1598 14.9554C77.1598 13.6119 76.9779 13.4328 75.7501 13.2984C74.5678 13.2089 73.7948 13.7911 70.2933 17.6872C68.1105 20.195 65.4276 23.6433 64.4272 25.3451C62.2444 29.0173 50.6486 41.5117 46.1012 45.0944C43.1909 47.4231 43.9185 46.3483 54.4684 32.9134C60.8802 24.8077 66.3825 17.3289 66.7009 16.2989C67.5649 14.015 66.1552 11.8206 64.1088 12.1341C61.1985 12.5819 50.2848 25.0316 41.8721 37.4365C37.4157 43.9748 36.097 47.0648 36.4153 49.7966L36.6427 51.9014L26.3656 62.0224C15.27 72.9494 12.6325 74.8303 13.9057 70.8894C15.2245 66.9037 27.0022 42.2283 32.0043 32.8238C38.3252 21.1355 38.9618 20.0607 45.6919 11.1041C51.5581 3.26705 53.1497 0.53529 52.1038 0.0426774C50.9214 -0.494719 47.2835 4.07315 42.5543 12.0445C36.9155 21.5385 19.0898 44.8257 2.35539 64.5302C0.127168 67.1724 -0.645887 68.292 0.581906 67.1724C3.31034 64.575 13.5874 52.394 23.9555 39.3174C28.4119 33.6747 32.2317 29.0173 32.4136 29.0173C32.5955 29.0173 31.8224 30.6743 30.7311 32.6447C27.5479 38.1082 11.9049 68.6502 11.0409 70.9342C10.0405 73.7107 10.9499 76.129 12.9053 75.9947C16.907 75.8155 22.7731 71.0237 31.8224 60.6789C37.7795 53.9166 38.9163 52.7971 41.4174 51.5879C43.6001 50.5131 46.2376 48.274 53.0587 41.5565L61.8352 32.9134L62.7446 34.2569C63.9724 36.0034 66.5644 36.1378 68.8836 34.5704C71.0209 33.0925 71.612 33.406 70.748 35.6004C70.1569 37.2574 70.9299 38.6456 72.7489 39.0039C73.9312 39.2726 76.7506 37.5708 81.6163 33.5851C84.8904 30.8982 85.2087 30.7638 85.527 31.973C86.2091 35.063 89.9835 34.3017 96.1679 29.7338C99.8513 27.0916 100.351 26.8677 100.624 27.9425C101.215 29.7786 102.079 30.3608 103.717 30.0025C106.445 29.3755 128.955 15.0002 129 13.8806C129 13.6119 127.045 14.1045 124.725 14.9554ZM50.7395 33.4508C42.4178 44.5122 38.9618 48.6322 39.2801 47.1544C39.9168 43.2135 49.9665 29.3755 57.0149 22.5237L61.8352 17.8663L59.4705 21.449C58.1518 23.3746 54.1955 28.7934 50.7395 33.4508Z" fill="#DFBB87"/>
</svg>
