<svg viewBox="0 0 20 21" fill="none" xmlns="http://www.w3.org/2000/svg" id="icon-eye">
<path d="M10.0003 12.2678C11.1048 12.2678 12.0003 11.3724 12.0003 10.2678C12.0003 9.16325 11.1048 8.26782 10.0003 8.26782C8.89568 8.26782 8.00025 9.16325 8.00025 10.2678C8.00025 11.3724 8.89568 12.2678 10.0003 12.2678Z" fill="#DFBB87"/>
<path fill-rule="evenodd" clip-rule="evenodd" d="M0.458008 10.2679C1.73226 6.21073 5.52256 3.26782 10.0002 3.26782C14.4778 3.26782 18.2681 6.2107 19.5424 10.2678C18.2682 14.3249 14.4778 17.2678 10.0002 17.2678C5.52257 17.2678 1.73228 14.3249 0.458008 10.2679ZM14.0003 10.2678C14.0003 12.477 12.2094 14.2678 10.0003 14.2678C7.79111 14.2678 6.00025 12.477 6.00025 10.2678C6.00025 8.05868 7.79111 6.26782 10.0003 6.26782C12.2094 6.26782 14.0003 8.05868 14.0003 10.2678Z" fill="#DFBB87"/>
</svg>