<svg width="24" height="24" viewBox="0 0 24 24" fill="none" xmlns="http://www.w3.org/2000/svg">
<g clip-path="url(#clip0_1094_15755)">
<path d="M22.2929 23.7071C22.6834 24.0976 23.3166 24.0976 23.7071 23.7071C24.0976 23.3166 24.0976 22.6834 23.7071 22.2929L22.2929 23.7071ZM13.9412 11.0588C14.4935 11.0588 14.9412 10.6111 14.9412 10.0588C14.9412 9.50654 14.4935 9.05882 13.9412 9.05882V11.0588ZM6.17647 9.05882C5.62419 9.05882 5.17647 9.50654 5.17647 10.0588C5.17647 10.6111 5.62419 11.0588 6.17647 11.0588V9.05882ZM9.05882 13.9412C9.05882 14.4935 9.50654 14.9412 10.0588 14.9412C10.6111 14.9412 11.0588 14.4935 11.0588 13.9412H9.05882ZM11.0588 6.17647C11.0588 5.62419 10.6111 5.17647 10.0588 5.17647C9.50654 5.17647 9.05882 5.62419 9.05882 6.17647H11.0588ZM18.1176 10.0588C18.1176 14.5096 14.5096 18.1176 10.0588 18.1176V20.1176C15.6142 20.1176 20.1176 15.6142 20.1176 10.0588H18.1176ZM10.0588 18.1176C5.60806 18.1176 2 14.5096 2 10.0588H0C0 15.6142 4.50349 20.1176 10.0588 20.1176V18.1176ZM2 10.0588C2 5.60806 5.60806 2 10.0588 2V0C4.50349 0 0 4.50349 0 10.0588H2ZM10.0588 2C14.5096 2 18.1176 5.60806 18.1176 10.0588H20.1176C20.1176 4.50349 15.6142 0 10.0588 0V2ZM15.8223 17.2365L22.2929 23.7071L23.7071 22.2929L17.2365 15.8223L15.8223 17.2365ZM13.9412 9.05882L6.17647 9.05882V11.0588L13.9412 11.0588V9.05882ZM11.0588 13.9412V6.17647H9.05882V13.9412H11.0588Z" fill="white"/>
</g>
<defs>
<clipPath id="clip0_1094_15755">
<rect width="24" height="24" fill="white"/>
</clipPath>
</defs>
</svg>
