<svg viewBox="0 0 67 38" xmlns="http://www.w3.org/2000/svg" id="mainlogo">
	<path fill-rule="evenodd" clip-rule="evenodd" d="M49.5025 1.0215H48.9472V0.000206035L58.6078 3.8951e-05L60.5155 0.00027138C61.69 0.000490352 62.7715 0.000692 63.7602 0C63.6173 1.57655 63.5149 2.88471 63.4435 4.35377C63.4077 5.82283 63.3899 6.9515 63.3899 7.73978C63.3899 8.4564 63.4077 9.13718 63.4435 9.78214C63.4792 10.4271 63.5149 10.9646 63.5506 11.3945H62.3181C61.8536 8.77888 61.2105 6.7186 60.3888 5.21371C59.6028 3.67298 58.6382 2.59806 57.495 1.98894C56.3517 1.34398 55.0298 1.0215 53.5293 1.0215H51.9752H49.5025ZM51.7073 37.9998H48.9472V36.9264H49.3766H51.3087C53.095 36.9264 54.4939 36.5845 55.4586 35.7962C56.4232 34.9721 57.102 33.8076 57.495 32.3027C57.888 30.7978 58.0845 29.0242 58.0845 26.9818C58.0845 24.8678 57.8522 23.0225 57.3878 21.446C56.9591 19.8694 56.1909 18.6512 55.0834 17.7912C53.9759 16.8955 52.4039 16.4476 50.3675 16.4476H48.9472V15.4135C49.6647 15.3976 50.8795 15.3727 51.4393 15.3727C54.3332 15.3727 56.7804 15.6951 58.7811 16.3401C60.7818 16.9851 62.3717 17.845 63.5506 18.9199C64.7653 19.959 65.6406 21.1593 66.1765 22.5209C66.7124 23.8825 66.9804 25.2978 66.9804 26.7669C66.9804 28.3076 66.6946 29.7587 66.123 31.1203C65.5513 32.4819 64.6403 33.6822 63.3899 34.7213C62.1752 35.7604 60.6032 36.5666 58.674 37.1399C56.7447 37.7132 54.4225 37.9998 51.7073 37.9998ZM46.3713 0.000287482V0.863553C45.2197 0.899484 44.3559 1.04321 43.7801 1.29473C43.2043 1.51032 42.8084 1.9415 42.5925 2.58827C42.4126 3.1991 42.3226 4.16926 42.3226 5.49872V32.2318C42.3226 33.5254 42.4126 34.4955 42.5925 35.1423C42.8084 35.789 43.2043 36.2202 43.7801 36.4358C44.3559 36.6514 45.2197 36.7951 46.3713 36.867L46.3712 37.9988H42.507H37.8913H33.061H29.3667L29.3668 36.867C30.5904 36.7951 31.5081 36.6514 32.1199 36.4358C32.7677 36.2202 33.1995 35.789 33.4155 35.1423C33.6314 34.4955 33.7394 33.5254 33.7394 32.2318L33.9806 5.21477C33.9687 4.02706 33.8792 3.14946 33.712 2.58198C33.4961 1.93521 33.1002 1.50403 32.5244 1.28844C31.9486 1.03692 31.0849 0.893194 29.9332 0.857263V0.000287482H34.0271H34.0272H35.9593H37.8914C38.4243 0.000287482 38.9501 0.0043572 39.4709 0.00838768C40.4974 0.0163331 41.5042 0.0241261 42.507 0.000287482H46.3713ZM19.8656 38H20.7293L24.5298 27.1543L13.3102 0.00143937H9.23129C8.25244 0.0252758 7.26929 0.0174864 6.26654 0.00954175C5.75774 0.00551056 5.24389 0.00143937 4.72298 0.00143937H2.14681L1.65013 0.00141994C1.02745 0.00139139 0.513725 0.00136784 0 0.00154942V0.864705C1.11564 0.900636 1.96137 1.04436 2.53719 1.29588C3.14899 1.51147 3.54486 1.94265 3.7248 2.58942L19.8656 38ZM5.36703 33.8499C4.93766 32.8476 4.47525 31.6439 4.47525 29.6677C4.47525 31.1396 4.18751 32.4125 3.96894 33.3794C3.93141 33.5454 3.89591 33.7024 3.86426 33.8499C3.68432 34.82 3.16698 35.5207 2.59117 35.9519C2.01535 36.3831 1.15163 36.6885 0 36.8681V38H2.14681H4.72298H7.83586H10.5266V36.8681C8.94313 36.6885 7.7735 36.3831 7.01775 35.9519C6.29798 35.4848 5.79639 34.7797 5.36703 33.8499Z" fill="#C87D37"/>
</svg>
