<svg viewBox="0 0 59 46" xmlns="http://www.w3.org/2000/svg" id="mainlogo">
	<path fill-rule="evenodd" clip-rule="evenodd" d="M37.5128 0.925293L38.6726 1.8515H36.353L37.5128 0.925293ZM21.459 0.925293L22.6188 1.8515H20.2991L21.459 0.925293ZM26.485 4.93884L24.5519 3.39517H18.3661L16.433 4.93884H26.485ZM14.4999 6.48251L12.5669 8.02618H28.6205L29.4852 7.33562L30.35 8.02618H46.4049L44.4718 6.48251H30.5538L29.4859 7.33527L28.418 6.48251H14.4999ZM26.6874 9.56985H10.6338L8.70075 11.1135H24.7543L26.6874 9.56985ZM34.2161 11.1135L32.2831 9.56985H48.338L50.271 11.1135H34.2161ZM22.8213 12.6572H6.76768L4.83462 14.2009H20.8882L22.8213 12.6572ZM38.0823 14.2009L36.1492 12.6572H52.2041L54.1372 14.2009H38.0823ZM18.9551 15.7445H2.90155L0.968488 17.2882H17.0221L18.9551 15.7445ZM41.9484 17.2882L40.0153 15.7445H56.0702L58.0033 17.2882H41.9484ZM16.0555 18.8319H0.00195312V20.3756H16.0555V18.8319ZM42.9149 20.3756V18.8319H58.9698V20.3756H42.9149ZM16.0555 21.9192H0.00195312V23.4629H16.0555V21.9192ZM42.9149 23.4629V21.9192H58.9698V23.4629H42.9149ZM16.0555 25.0066H0.00195312V26.5502H16.0555V25.0066ZM42.9149 26.5502V25.0066H58.9698V26.5502H42.9149ZM16.0555 28.0939H0.00195312V29.6376H16.0555V28.0939ZM42.9149 29.6376V28.0939H58.9698V29.6376H42.9149ZM16.0555 31.1813H0.00195312V32.7249H16.0555V31.1813ZM42.9149 32.7249V31.1813H58.9698V32.7249H42.9149ZM16.0555 34.2686H0.00195312V35.8123H16.0555V34.2686ZM42.9149 35.8123V34.2686H58.9698V35.8123H42.9149ZM16.0555 37.3559H0.00195312V38.8996H16.0555V37.3559ZM42.9149 38.8996V37.3559H58.9698V38.8996H42.9149ZM16.0555 40.4433H0.00195312V41.987H16.0555V40.4433ZM42.9149 41.987V40.4433H58.9698V41.987H42.9149ZM16.0555 43.5306H0.00195312V45.0743H16.0555V43.5306ZM42.9149 45.0743V43.5306H58.9698V45.0743H42.916H42.9149ZM42.5388 4.93884L40.6057 3.39517H34.4199L32.4868 4.93884H42.5388Z" fill="#DFBB87"/>
	<path fill-rule="evenodd" clip-rule="evenodd" d="M57.4251 18.8028L37.5117 2.90077L17.5984 18.8028V45.0743H41.3709V43.5306H57.4251V18.8028ZM37.5117 0.925293L58.9688 18.06V45.0743H16.0547V18.06L37.5117 0.925293Z" fill="#DFBB87"/>
	<path fill-rule="evenodd" clip-rule="evenodd" d="M41.3704 18.8028L21.457 2.90077L1.54367 18.8028V43.5306H17.5979V45.0743H41.3704V18.8028ZM21.457 0.925293L42.9141 18.06V45.0743H0V18.06L21.457 0.925293Z" fill="#DFBB87"/>
	<path d="M29.4835 14.5098L36.1213 19.7582V45.0745H22.8457V19.7582L29.4835 14.5098Z" fill="#C87D37"/>
</svg>
