<svg width="34" height="44" viewBox="0 0 34 44" fill="none" xmlns="http://www.w3.org/2000/svg">
<circle cx="16.9998" cy="40.8001" r="3.2" fill="#65A3E2"/>
<path d="M34 16.7442C34 25.4266 27.2907 32.5656 18.7 33.4057C18.1409 33.4604 17.5738 36 17 36C16.4263 36 15.8591 33.4604 15.3 33.4057C6.70935 32.5656 0 25.4266 0 16.7442C0 7.49663 7.61116 0 17 0C26.3888 0 34 7.49663 34 16.7442Z" fill="#65A3E2"/>
<path d="M17 23.5V16.625M20.125 23.5V16.625M13.875 23.5V16.625M9.5 13.5L17 8.5L24.5 13.5M23.25 23.5V14.6104C21.2136 14.2909 19.1262 14.125 17 14.125C14.8738 14.125 12.7864 14.2909 10.75 14.6104V23.5M9.5 23.5H24.5M17 11.625H17.0063V11.6313H17V11.625Z" stroke="white" stroke-width="1.5" stroke-linecap="round" stroke-linejoin="round"/>
</svg>
