<?xml version="1.0" standalone="no"?>
<!DOCTYPE svg PUBLIC "-//W3C//DTD SVG 20010904//EN"
 "http://www.w3.org/TR/2001/REC-SVG-20010904/DTD/svg10.dtd">
<svg version="1.0" xmlns="http://www.w3.org/2000/svg"
 width="944.000000pt" height="944.000000pt" viewBox="0 0 944.000000 944.000000"
 preserveAspectRatio="xMidYMid meet">
<metadata>
Created by potrace 1.14, written by Peter Selinger 2001-2017
</metadata>
<g transform="translate(0.000000,944.000000) scale(0.100000,-0.100000)"
fill="#000000" stroke="none">
<path d="M3295 8144 c-71 -58 -143 -117 -160 -130 -16 -13 -43 -35 -60 -48
-16 -14 -82 -65 -145 -115 -129 -101 -167 -131 -184 -146 -6 -5 -34 -28 -61
-50 -28 -21 -52 -42 -55 -45 -3 -3 -25 -21 -50 -40 -25 -19 -46 -38 -48 -42
-2 -5 -10 -8 -17 -8 -7 0 -15 -4 -17 -9 -1 -6 -52 -49 -113 -96 -60 -47 -117
-91 -125 -98 -8 -7 -60 -48 -115 -92 -55 -44 -116 -93 -136 -110 -20 -16 -45
-37 -55 -45 -25 -19 -115 -91 -131 -105 -21 -17 -36 -29 -103 -80 -36 -27 -67
-52 -70 -55 -3 -4 -59 -49 -125 -100 -66 -52 -125 -99 -131 -105 -6 -5 -28
-23 -49 -40 -21 -16 -52 -41 -69 -55 -17 -14 -35 -28 -41 -33 -5 -4 -23 -19
-40 -33 -16 -13 -55 -44 -85 -67 -30 -23 -57 -44 -60 -47 -3 -3 -25 -21 -50
-40 -53 -41 -78 -61 -94 -75 -6 -6 -31 -26 -56 -45 -54 -42 -78 -61 -94 -75
-6 -6 -31 -26 -56 -45 -25 -19 -50 -39 -56 -45 -6 -5 -26 -22 -45 -37 -172
-135 -458 -364 -507 -406 -15 -12 -42 -32 -59 -45 l-33 -22 3 -2165 2 -2164
1395 -1 c767 0 1400 1 1405 2 8 3 11 659 10 2104 l0 2099 46 38 c26 20 62 49
80 64 27 21 157 125 239 191 8 7 35 28 60 47 55 43 79 62 94 75 6 6 65 53 131
105 66 52 122 97 125 100 3 3 81 66 175 140 93 74 177 141 185 147 16 13 270
215 328 262 18 14 39 31 45 36 7 6 91 73 187 150 96 76 177 143 178 147 8 18
45 6 85 -26 23 -19 105 -84 182 -145 77 -61 149 -119 161 -129 11 -9 38 -31
60 -48 139 -111 267 -213 300 -239 124 -99 312 -249 329 -263 11 -10 51 -42
90 -72 38 -30 79 -63 90 -72 17 -14 411 -329 526 -420 19 -14 48 -38 64 -52
17 -14 33 -26 37 -26 4 0 7 -109 8 -241 0 -133 3 -245 5 -250 3 -4 1 -10 -3
-13 -5 -3 -8 -18 -6 -33 5 -41 6 -441 2 -450 -2 -5 -3 -19 -2 -33 4 -45 6
-439 2 -447 -2 -5 -3 -19 -2 -33 4 -45 6 -439 2 -447 -2 -5 -3 -19 -2 -33 4
-41 5 -760 1 -768 -2 -4 -2 -18 -1 -32 2 -20 6 -423 4 -440 0 -7 -1 -951 -1
-975 1 -20 7 -20 1403 -18 772 0 1405 1 1408 2 11 2 5 4320 -5 4329 -5 5 -80
65 -165 133 -85 68 -160 129 -166 134 -6 6 -26 21 -44 35 -36 27 -456 361
-480 382 -8 7 -107 86 -220 175 -113 89 -218 174 -234 188 -16 14 -32 25 -36
25 -5 0 -10 3 -12 8 -4 10 -87 78 -303 247 -77 60 -145 114 -151 120 -6 5 -26
21 -44 35 -18 14 -65 51 -104 83 -39 32 -79 65 -89 73 -10 8 -76 60 -145 116
-70 55 -140 111 -156 124 -16 13 -43 34 -59 46 -17 13 -56 43 -86 68 -31 25
-64 52 -75 60 -10 8 -37 31 -60 50 -24 19 -57 46 -76 60 -18 14 -38 30 -44 35
-6 6 -54 45 -106 85 -52 41 -102 80 -110 87 -242 193 -350 279 -370 297 -14
12 -40 32 -58 44 l-32 24 -68 -54 c-37 -29 -73 -57 -80 -63 -7 -5 -21 -17 -30
-26 -13 -12 -196 -158 -282 -226 -8 -6 -118 -94 -244 -195 -495 -396 -578
-459 -589 -450 -7 5 -48 38 -93 73 -45 35 -98 78 -119 94 -22 17 -68 54 -104
83 -77 62 -68 55 -196 157 -55 43 -102 82 -105 85 -3 3 -23 19 -45 35 -22 17
-42 32 -45 36 -3 3 -48 39 -100 79 -52 41 -100 79 -106 85 -6 5 -23 19 -38 30
-16 11 -33 25 -40 30 -6 6 -39 33 -73 60 -35 28 -63 53 -63 58 0 4 -4 7 -10 7
-9 0 -30 15 -64 45 -25 23 -69 55 -75 55 -3 -1 -64 -48 -136 -106z m186 -246
c21 -17 39 -34 39 -37 0 -3 -37 -5 -82 -4 -106 2 -106 2 -85 14 9 5 29 21 44
35 14 13 30 24 35 24 5 0 27 -14 49 -32z m2539 22 c0 -5 5 -10 11 -10 5 0 23
-12 40 -27 l29 -28 -90 1 c-50 0 -92 3 -95 6 -6 6 76 67 93 68 6 0 12 -4 12
-10z m-2118 -357 c35 -27 65 -51 68 -54 9 -11 116 -96 143 -114 15 -10 25 -20
21 -24 -3 -3 -323 -6 -710 -6 -387 -1 -701 2 -696 6 4 4 72 60 152 123 l145
116 407 0 408 0 62 -47z m2582 -12 c82 -64 89 -70 128 -103 15 -13 43 -34 62
-48 20 -14 36 -28 36 -31 0 -3 -320 -5 -710 -5 -562 0 -708 3 -698 12 7 7 76
62 153 123 l140 111 408 0 407 0 74 -59z m-1995 -458 c27 -29 26 -35 -6 -55
-16 -9 -42 -29 -59 -45 -17 -15 -58 -49 -91 -75 l-61 -48 -1087 0 -1087 0 154
123 154 122 1032 0 1031 0 20 -22z m2571 -3 c19 -13 40 -29 46 -35 6 -5 59
-48 117 -95 58 -46 105 -85 103 -87 -1 -1 -487 -3 -1080 -3 l-1078 -1 -57 43
c-31 24 -58 45 -61 48 -3 3 -30 25 -60 50 -30 24 -59 47 -65 52 -9 8 22 36 52
48 7 3 470 5 1030 5 l1018 0 35 -25z m-3100 -467 c0 -1 -30 -25 -67 -54 -38
-30 -70 -56 -73 -59 -3 -3 -34 -28 -69 -55 -35 -28 -71 -57 -80 -65 -14 -13
-150 -15 -1099 -15 -595 0 -1082 2 -1082 5 0 3 37 34 83 70 45 35 84 68 85 72
2 5 10 8 18 8 8 0 14 4 14 8 0 5 24 26 53 48 l53 39 1082 0 c595 0 1082 -1
1082 -2z m3694 -10 c23 -13 294 -227 295 -233 1 -3 -487 -5 -1082 -5 -1163 0
-1084 -3 -1142 47 -25 22 -196 157 -210 166 -5 4 -15 14 -22 22 -10 13 110 15
1067 14 641 -1 1084 -5 1094 -11z m-4336 -504 c-13 -10 -27 -22 -33 -26 -45
-35 -111 -89 -115 -93 -3 -3 -33 -27 -67 -54 -54 -42 -133 -76 -133 -57 0 4
-721 5 -1365 0 -11 0 -181 1 -378 2 l-359 1 22 20 c12 12 80 67 151 123 l129
103 1085 0 c1061 0 1085 -1 1063 -19z m4977 -4 c17 -12 40 -31 52 -41 12 -11
36 -30 54 -44 18 -14 37 -29 43 -35 6 -5 27 -22 46 -36 19 -15 46 -36 59 -48
l25 -22 -30 3 c-16 1 -35 -1 -42 -6 -7 -4 -12 -4 -12 1 0 6 -137 7 -485 3 -5
-1 -358 0 -783 1 -425 1 -775 -1 -778 -4 -12 -12 -65 23 -202 131 -78 63 -142
115 -142 117 0 1 487 3 1083 3 l1082 0 30 -23z m-5591 -487 c-9 -9 -42 -36
-75 -59 -56 -42 -59 -45 -60 -89 -1 -25 -2 -54 -3 -64 -1 -19 -26 -19 -1157
-20 -768 -1 -1155 2 -1152 9 7 18 281 230 303 235 12 3 502 5 1090 5 995 0
1068 -1 1054 -17z m6267 -52 c134 -108 161 -129 191 -156 l29 -25 -1156 1
c-813 0 -1159 4 -1163 12 -4 5 -7 33 -6 61 1 49 -1 53 -40 84 -22 17 -50 40
-60 49 -11 10 -23 18 -28 18 -4 0 -8 6 -8 13 0 9 222 12 1079 11 l1078 -1 84
-67z m-6404 -548 l-2 -123 -1159 0 -1159 0 0 100 c1 55 2 110 2 123 l1 22
1160 0 1159 0 -2 -122z m6620 0 l-2 -123 -1160 0 -1159 0 -1 105 c0 58 1 113
3 123 4 16 68 17 1163 17 l1158 0 -2 -122z m-6619 -491 c0 -86 -4 -120 -13
-123 -17 -7 -105 -10 -105 -4 0 3 -18 5 -40 5 -22 0 -40 -2 -40 -5 0 -3 -36
-5 -80 -5 -44 0 -80 3 -80 7 0 4 -6 5 -14 2 -18 -7 -226 -11 -226 -4 0 3 -18
5 -40 5 -22 0 -40 -2 -40 -5 0 -3 -36 -5 -80 -5 -44 0 -80 3 -80 7 0 4 -6 5
-14 2 -18 -7 -226 -11 -226 -4 0 3 -18 5 -40 5 -22 0 -40 -2 -40 -5 0 -3 -36
-5 -80 -5 -44 0 -80 3 -80 7 0 4 -6 5 -14 2 -18 -7 -226 -11 -226 -4 0 3 -18
5 -40 5 -22 0 -40 -2 -40 -5 0 -3 -36 -5 -80 -5 -44 0 -80 3 -80 7 0 4 -6 5
-14 2 -18 -7 -226 -11 -226 -4 0 3 -18 5 -40 5 -22 0 -40 -2 -40 -5 0 -7 -189
-4 -196 3 -5 4 -9 178 -5 227 1 14 128 16 1160 16 l1159 0 0 -119z m6619 3 c1
-63 0 -120 -2 -126 -2 -7 -19 -9 -49 -4 -25 4 -46 4 -46 1 0 -3 -36 -6 -80 -6
-44 0 -80 3 -80 7 0 4 -6 5 -14 2 -18 -7 -226 -11 -226 -4 0 3 -18 5 -40 5
-22 0 -40 -2 -40 -5 0 -3 -36 -5 -80 -5 -44 0 -80 3 -80 7 0 4 -6 5 -14 2 -18
-7 -226 -11 -226 -4 0 3 -18 5 -40 5 -22 0 -40 -2 -40 -5 0 -3 -36 -5 -80 -5
-44 0 -80 3 -80 7 0 4 -6 5 -14 2 -18 -7 -226 -11 -226 -4 0 3 -18 5 -40 5
-22 0 -40 -2 -40 -5 0 -3 -36 -5 -80 -5 -44 0 -80 3 -80 7 0 4 -6 5 -14 2 -18
-7 -226 -11 -226 -4 0 3 -18 5 -40 5 -22 0 -40 -2 -40 -5 0 -3 -36 -5 -80 -5
-44 0 -80 4 -80 8 0 5 -4 6 -8 3 -8 -5 -102 -10 -127 -7 -11 1 -13 220 -2 237
3 6 442 10 1159 9 l1153 0 2 -115z m-6619 -502 l3 -123 -1153 1 c-634 1 -1157
2 -1163 3 -6 1 -10 47 -9 118 0 113 1 118 23 123 12 3 534 4 1159 3 l1137 -1
3 -124z m6599 122 c22 0 23 -2 20 -122 l-2 -123 -1157 0 c-769 0 -1158 3
-1159 10 -4 43 -3 219 1 226 3 4 60 10 125 11 90 2 2046 1 2172 -2z m-6599
-617 l3 -123 -1163 0 -1163 0 2 118 c0 64 2 120 2 123 1 4 522 6 1159 5 l1157
-1 3 -122z m6620 1 l1 -124 -1162 0 -1162 0 0 124 0 124 1161 0 1162 0 0 -124z
m-6625 -373 c4 0 7 -56 7 -123 l0 -123 -1160 0 c-638 0 -1160 2 -1161 5 -5 30
-3 219 2 230 6 13 142 15 1156 14 631 -1 1151 -2 1156 -3z m6624 -119 c2 -109
0 -122 -15 -123 -87 -5 -2281 -3 -2292 2 -13 6 -15 26 -14 111 1 57 2 110 3
118 1 13 137 15 1158 15 l1158 0 2 -123z m-6617 -495 l0 -124 -1155 0 c-1048
0 -1157 2 -1163 16 -6 12 -8 186 -3 224 1 4 523 7 1161 7 l1160 0 0 -123z
m6618 0 l-1 -124 -1156 0 c-636 0 -1158 3 -1161 8 -4 5 -5 224 -1 237 1 1 523
2 1160 2 l1160 0 -1 -123z m-6625 -376 c4 0 7 -55 7 -121 l0 -120 -1162 0
-1163 0 2 112 c1 62 2 118 2 123 1 7 383 10 1154 9 633 -1 1155 -2 1160 -3z
m6625 -118 l2 -123 -1159 0 c-918 0 -1160 3 -1163 13 -3 10 -3 150 1 217 1 14
133 15 1159 15 l1157 0 3 -122z m-6621 -493 l-2 -125 -1157 0 c-1022 0 -1158
2 -1159 15 -5 77 -2 231 3 232 5 2 527 3 1162 3 l1155 0 -2 -125z m6611 116
c8 -5 11 -43 10 -124 l-3 -117 -1150 -1 c-632 0 -1154 1 -1160 3 -10 3 -13
223 -2 239 6 11 2288 11 2305 0z"/>
<path d="M4660 6034 c-71 -58 -69 -57 -175 -138 -50 -38 -94 -74 -100 -80 -5
-6 -30 -27 -55 -46 -69 -52 -274 -214 -280 -220 -3 -3 -25 -21 -50 -40 -25
-19 -46 -38 -48 -42 -2 -5 -9 -8 -16 -8 -6 0 -18 -9 -26 -20 -8 -11 -20 -20
-26 -20 -7 0 -14 -3 -16 -7 -1 -5 -48 -44 -103 -87 -55 -44 -102 -83 -105 -87
-8 -11 -6 -4036 2 -4044 4 -5 1882 -10 2091 -6 l27 1 0 2024 0 2024 -42 33
c-24 19 -45 36 -48 39 -3 3 -21 17 -40 31 -19 15 -45 35 -57 45 -12 11 -36 30
-54 44 -89 69 -156 121 -169 133 -8 7 -35 28 -60 47 -25 19 -47 37 -50 40 -3
4 -34 29 -70 56 -36 27 -74 57 -85 66 -37 30 -338 267 -380 299 -6 4 -35 -12
-65 -37z"/>
</g>
</svg>
